<?xml version="1.0" encoding="UTF-8"?>
<!DOCTYPE svg
PUBLIC "-//W3C//DTD SVG 1.1//EN"
       "http://www.w3.org/Graphics/SVG/1.1/DTD/svg11.dtd">
<svg viewBox="37 9 998 730" width="961px" height="721px" xmlns="http://www.w3.org/2000/svg" version="1.1">
   <line x1="490" y1="81" x2="500" y2="81" style="stroke:#c00;stroke-width:1;"/>
   <line x1="638" y1="270" x2="648" y2="270" style="stroke:#c00;stroke-width:1;"/>
   <line x1="500" y1="81" x2="638" y2="270" style="stroke:#c00;stroke-width:1;"/>
   <line x1="497.5" y1="81" x2="493.96446609407" y2="84.535533905933" style="stroke:#c00;stroke-width:2;"/>
   <line x1="497.5" y1="81" x2="493.96446609407" y2="77.464466094067" style="stroke:#c00;stroke-width:2;"/>
   <line x1="643" y1="270" x2="639.46446609407" y2="273.53553390593" style="stroke:#c00;stroke-width:2;"/>
   <line x1="643" y1="270" x2="639.46446609407" y2="266.46446609407" style="stroke:#c00;stroke-width:2;"/>
   <line x1="339" y1="394" x2="329" y2="394" style="stroke:#b0b;stroke-width:1;"/>
   <line x1="330" y1="192" x2="320" y2="192" style="stroke:#b0b;stroke-width:1;"/>
   <line x1="329" y1="394" x2="330" y2="192" style="stroke:#b0b;stroke-width:1;"/>
   <line x1="331.5" y1="394" x2="335.03553390593" y2="397.53553390593" style="stroke:#b0b;stroke-width:2;"/>
   <line x1="331.5" y1="394" x2="335.03553390593" y2="390.46446609407" style="stroke:#b0b;stroke-width:2;"/>
   <line x1="325" y1="192" x2="328.53553390593" y2="195.53553390593" style="stroke:#b0b;stroke-width:2;"/>
   <line x1="325" y1="192" x2="328.53553390593" y2="188.46446609407" style="stroke:#b0b;stroke-width:2;"/>
   <line x1="462" y1="414" x2="472" y2="414" style="stroke:#bbb;stroke-width:1;"/>
   <line x1="500" y1="542" x2="490" y2="542" style="stroke:#bbb;stroke-width:1;"/>
   <line x1="472" y1="414" x2="500" y2="542" style="stroke:#bbb;stroke-width:1;"/>
   <line x1="469.5" y1="414" x2="465.96446609407" y2="417.53553390593" style="stroke:#bbb;stroke-width:2;"/>
   <line x1="469.5" y1="414" x2="465.96446609407" y2="410.46446609407" style="stroke:#bbb;stroke-width:2;"/>
   <line x1="495" y1="542" x2="498.53553390593" y2="545.53553390593" style="stroke:#bbb;stroke-width:2;"/>
   <line x1="495" y1="542" x2="498.53553390593" y2="538.46446609407" style="stroke:#bbb;stroke-width:2;"/>
   <line x1="862" y1="425" x2="852" y2="425" style="stroke:#0bf;stroke-width:1;"/>
   <line x1="739" y1="270" x2="729" y2="270" style="stroke:#0bf;stroke-width:1;"/>
   <line x1="852" y1="425" x2="739" y2="270" style="stroke:#0bf;stroke-width:1;"/>
   <line x1="854.5" y1="425" x2="858.03553390593" y2="428.53553390593" style="stroke:#0bf;stroke-width:2;"/>
   <line x1="854.5" y1="425" x2="858.03553390593" y2="421.46446609407" style="stroke:#0bf;stroke-width:2;"/>
   <line x1="734" y1="270" x2="737.53553390593" y2="273.53553390593" style="stroke:#0bf;stroke-width:2;"/>
   <line x1="734" y1="270" x2="737.53553390593" y2="266.46446609407" style="stroke:#0bf;stroke-width:2;"/>
   <line x1="884" y1="191" x2="874" y2="191" style="stroke:#b0b;stroke-width:1;"/>
   <line x1="500" y1="61" x2="490" y2="61" style="stroke:#b0b;stroke-width:1;"/>
   <line x1="874" y1="191" x2="500" y2="61" style="stroke:#b0b;stroke-width:1;"/>
   <line x1="876.5" y1="191" x2="880.03553390593" y2="194.53553390593" style="stroke:#b0b;stroke-width:2;"/>
   <line x1="876.5" y1="191" x2="880.03553390593" y2="187.46446609407" style="stroke:#b0b;stroke-width:2;"/>
   <line x1="495" y1="61" x2="498.53553390593" y2="64.535533905933" style="stroke:#b0b;stroke-width:2;"/>
   <line x1="495" y1="61" x2="498.53553390593" y2="57.464466094067" style="stroke:#b0b;stroke-width:2;"/>
   <line x1="884" y1="171" x2="874" y2="171" style="stroke:#333;stroke-width:1;"/>
   <line x1="785" y1="54" x2="775" y2="54" style="stroke:#333;stroke-width:1;"/>
   <line x1="874" y1="171" x2="785" y2="54" style="stroke:#333;stroke-width:1;"/>
   <line x1="876.5" y1="171" x2="880.03553390593" y2="174.53553390593" style="stroke:#333;stroke-width:2;"/>
   <line x1="876.5" y1="171" x2="880.03553390593" y2="167.46446609407" style="stroke:#333;stroke-width:2;"/>
   <line x1="780" y1="54" x2="783.53553390593" y2="57.535533905933" style="stroke:#333;stroke-width:2;"/>
   <line x1="780" y1="54" x2="783.53553390593" y2="50.464466094067" style="stroke:#333;stroke-width:2;"/>
   <line x1="884" y1="131" x2="874" y2="131" style="stroke:#0bf;stroke-width:1;"/>
   <line x1="739" y1="270" x2="729" y2="270" style="stroke:#0bf;stroke-width:1;"/>
   <line x1="874" y1="131" x2="739" y2="270" style="stroke:#0bf;stroke-width:1;"/>
   <line x1="876.5" y1="131" x2="880.03553390593" y2="134.53553390593" style="stroke:#0bf;stroke-width:2;"/>
   <line x1="876.5" y1="131" x2="880.03553390593" y2="127.46446609407" style="stroke:#0bf;stroke-width:2;"/>
   <line x1="734" y1="270" x2="737.53553390593" y2="273.53553390593" style="stroke:#0bf;stroke-width:2;"/>
   <line x1="734" y1="270" x2="737.53553390593" y2="266.46446609407" style="stroke:#0bf;stroke-width:2;"/>
   <line x1="210" y1="533" x2="220" y2="533" style="stroke:#333;stroke-width:1;"/>
   <line x1="874" y1="111" x2="884" y2="111" style="stroke:#333;stroke-width:1;"/>
   <line x1="220" y1="533" x2="874" y2="111" style="stroke:#333;stroke-width:1;"/>
   <line x1="217.5" y1="533" x2="213.96446609407" y2="536.53553390593" style="stroke:#333;stroke-width:2;"/>
   <line x1="217.5" y1="533" x2="213.96446609407" y2="529.46446609407" style="stroke:#333;stroke-width:2;"/>
   <line x1="879" y1="111" x2="875.46446609407" y2="114.53553390593" style="stroke:#333;stroke-width:2;"/>
   <line x1="879" y1="111" x2="875.46446609407" y2="107.46446609407" style="stroke:#333;stroke-width:2;"/>
   <line x1="210" y1="553" x2="220" y2="553" style="stroke:#0b0;stroke-width:1;"/>
   <line x1="383" y1="542" x2="393" y2="542" style="stroke:#0b0;stroke-width:1;"/>
   <line x1="220" y1="553" x2="383" y2="542" style="stroke:#0b0;stroke-width:1;"/>
   <line x1="217.5" y1="553" x2="213.96446609407" y2="556.53553390593" style="stroke:#0b0;stroke-width:2;"/>
   <line x1="217.5" y1="553" x2="213.96446609407" y2="549.46446609407" style="stroke:#0b0;stroke-width:2;"/>
   <line x1="388" y1="542" x2="384.46446609407" y2="545.53553390593" style="stroke:#0b0;stroke-width:2;"/>
   <line x1="388" y1="542" x2="384.46446609407" y2="538.46446609407" style="stroke:#0b0;stroke-width:2;"/>
   <line x1="393" y1="642" x2="383" y2="642" style="stroke:#0bf;stroke-width:1;"/>
   <line x1="150" y1="310" x2="140" y2="310" style="stroke:#0bf;stroke-width:1;"/>
   <line x1="383" y1="642" x2="150" y2="310" style="stroke:#0bf;stroke-width:1;"/>
   <line x1="385.5" y1="642" x2="389.03553390593" y2="645.53553390593" style="stroke:#0bf;stroke-width:2;"/>
   <line x1="385.5" y1="642" x2="389.03553390593" y2="638.46446609407" style="stroke:#0bf;stroke-width:2;"/>
   <line x1="145" y1="310" x2="148.53553390593" y2="313.53553390593" style="stroke:#0bf;stroke-width:2;"/>
   <line x1="145" y1="310" x2="148.53553390593" y2="306.46446609407" style="stroke:#0bf;stroke-width:2;"/>
   <line x1="636" y1="556" x2="626" y2="556" style="stroke:#b0b;stroke-width:1;"/>
   <line x1="500" y1="542" x2="490" y2="542" style="stroke:#b0b;stroke-width:1;"/>
   <line x1="626" y1="556" x2="500" y2="542" style="stroke:#b0b;stroke-width:1;"/>
   <line x1="628.5" y1="556" x2="632.03553390593" y2="559.53553390593" style="stroke:#b0b;stroke-width:2;"/>
   <line x1="628.5" y1="556" x2="632.03553390593" y2="552.46446609407" style="stroke:#b0b;stroke-width:2;"/>
   <line x1="495" y1="542" x2="498.53553390593" y2="545.53553390593" style="stroke:#b0b;stroke-width:2;"/>
   <line x1="495" y1="542" x2="498.53553390593" y2="538.46446609407" style="stroke:#b0b;stroke-width:2;"/>
   <line x1="752" y1="576" x2="762" y2="576" style="stroke:#bbb;stroke-width:1;"/>
   <line x1="853" y1="585" x2="863" y2="585" style="stroke:#bbb;stroke-width:1;"/>
   <line x1="762" y1="576" x2="853" y2="585" style="stroke:#bbb;stroke-width:1;"/>
   <line x1="759.5" y1="576" x2="755.96446609407" y2="579.53553390593" style="stroke:#bbb;stroke-width:2;"/>
   <line x1="759.5" y1="576" x2="755.96446609407" y2="572.46446609407" style="stroke:#bbb;stroke-width:2;"/>
   <line x1="858" y1="585" x2="854.46446609407" y2="588.53553390593" style="stroke:#bbb;stroke-width:2;"/>
   <line x1="858" y1="585" x2="854.46446609407" y2="581.46446609407" style="stroke:#bbb;stroke-width:2;"/>
   <line x1="210" y1="81" x2="220" y2="81" style="stroke:#b0b;stroke-width:1;"/>
   <line x1="383" y1="542" x2="393" y2="542" style="stroke:#b0b;stroke-width:1;"/>
   <line x1="220" y1="81" x2="383" y2="542" style="stroke:#b0b;stroke-width:1;"/>
   <line x1="217.5" y1="81" x2="213.96446609407" y2="84.535533905933" style="stroke:#b0b;stroke-width:2;"/>
   <line x1="217.5" y1="81" x2="213.96446609407" y2="77.464466094067" style="stroke:#b0b;stroke-width:2;"/>
   <line x1="388" y1="542" x2="384.46446609407" y2="545.53553390593" style="stroke:#b0b;stroke-width:2;"/>
   <line x1="388" y1="542" x2="384.46446609407" y2="538.46446609407" style="stroke:#b0b;stroke-width:2;"/>
   <rect width="62" height="20" x="428" y="31" style="fill:#007;stroke:black;"/>
   <text width="62" height="20" x="433" y="45" style="fill:#fff;" font-family="Arial" font-size="16px"> address</text>
   <rect width="62" height="20" x="428" y="51" style="fill:#aea;stroke:black;"/>
   <text width="62" height="20" x="433" y="65" style="fill:black;" font-family="Arial" font-size="16px">id</text>
   <rect width="62" height="20" x="428" y="71" style="fill:none;stroke:black;"/>
   <text width="62" height="20" x="433" y="85" style="fill:black;" font-family="Arial" font-size="16px">user_id</text>
   <rect width="62" height="20" x="428" y="91" style="fill:none;stroke:black;"/>
   <text width="62" height="20" x="433" y="105" style="fill:black;" font-family="Arial" font-size="16px">street</text>
   <rect width="62" height="20" x="428" y="111" style="fill:none;stroke:black;"/>
   <text width="62" height="20" x="433" y="125" style="fill:black;" font-family="Arial" font-size="16px">zip</text>
   <rect width="62" height="20" x="428" y="131" style="fill:none;stroke:black;"/>
   <text width="62" height="20" x="433" y="145" style="fill:black;" font-family="Arial" font-size="16px">city</text>
   <rect width="62" height="20" x="428" y="151" style="fill:none;stroke:black;"/>
   <text width="62" height="20" x="433" y="165" style="fill:black;" font-family="Arial" font-size="16px">country</text>
   <rect width="88" height="20" x="52" y="280" style="fill:#007;stroke:black;"/>
   <text width="88" height="20" x="57" y="294" style="fill:#fff;" font-family="Arial" font-size="16px"> categories</text>
   <rect width="88" height="20" x="52" y="300" style="fill:#aea;stroke:black;"/>
   <text width="88" height="20" x="57" y="314" style="fill:black;" font-family="Arial" font-size="16px">id</text>
   <rect width="88" height="20" x="52" y="320" style="fill:none;stroke:black;"/>
   <text width="88" height="20" x="57" y="334" style="fill:black;" font-family="Arial" font-size="16px">name</text>
   <rect width="88" height="20" x="52" y="340" style="fill:none;stroke:black;"/>
   <text width="88" height="20" x="57" y="354" style="fill:black;" font-family="Arial" font-size="16px">description</text>
   <rect width="88" height="20" x="52" y="360" style="fill:none;stroke:black;"/>
   <text width="88" height="20" x="57" y="374" style="fill:black;" font-family="Arial" font-size="16px">image</text>
   <rect width="88" height="20" x="52" y="380" style="fill:none;stroke:black;"/>
   <text width="88" height="20" x="57" y="394" style="fill:black;" font-family="Arial" font-size="16px">is_hidden</text>
   <rect width="76" height="20" x="699" y="24" style="fill:#007;stroke:black;"/>
   <text width="76" height="20" x="704" y="38" style="fill:#fff;" font-family="Arial" font-size="16px"> coupons</text>
   <rect width="76" height="20" x="699" y="44" style="fill:#aea;stroke:black;"/>
   <text width="76" height="20" x="704" y="58" style="fill:black;" font-family="Arial" font-size="16px">id</text>
   <rect width="76" height="20" x="699" y="64" style="fill:none;stroke:black;"/>
   <text width="76" height="20" x="704" y="78" style="fill:black;" font-family="Arial" font-size="16px">name</text>
   <rect width="76" height="20" x="699" y="84" style="fill:none;stroke:black;"/>
   <text width="76" height="20" x="704" y="98" style="fill:black;" font-family="Arial" font-size="16px">reduction</text>
   <rect width="104" height="20" x="863" y="555" style="fill:#007;stroke:black;"/>
   <text width="104" height="20" x="868" y="569" style="fill:#fff;" font-family="Arial" font-size="16px"> foods</text>
   <rect width="104" height="20" x="863" y="575" style="fill:#aea;stroke:black;"/>
   <text width="104" height="20" x="868" y="589" style="fill:black;" font-family="Arial" font-size="16px">id</text>
   <rect width="104" height="20" x="863" y="595" style="fill:none;stroke:black;"/>
   <text width="104" height="20" x="868" y="609" style="fill:black;" font-family="Arial" font-size="16px">name</text>
   <rect width="104" height="20" x="863" y="615" style="fill:none;stroke:black;"/>
   <text width="104" height="20" x="868" y="629" style="fill:black;" font-family="Arial" font-size="16px">lipid</text>
   <rect width="104" height="20" x="863" y="635" style="fill:none;stroke:black;"/>
   <text width="104" height="20" x="868" y="649" style="fill:black;" font-family="Arial" font-size="16px">protein</text>
   <rect width="104" height="20" x="863" y="655" style="fill:none;stroke:black;"/>
   <text width="104" height="20" x="868" y="669" style="fill:black;" font-family="Arial" font-size="16px">carbohydrate</text>
   <rect width="104" height="20" x="863" y="675" style="fill:none;stroke:black;"/>
   <text width="104" height="20" x="868" y="689" style="fill:black;" font-family="Arial" font-size="16px">weight</text>
   <rect width="104" height="20" x="863" y="695" style="fill:none;stroke:black;"/>
   <text width="104" height="20" x="868" y="709" style="fill:black;" font-family="Arial" font-size="16px">is_hidden</text>
   <rect width="74" height="20" x="246" y="162" style="fill:#007;stroke:black;"/>
   <text width="74" height="20" x="251" y="176" style="fill:#fff;" font-family="Arial" font-size="16px"> menus</text>
   <rect width="74" height="20" x="246" y="182" style="fill:#aea;stroke:black;"/>
   <text width="74" height="20" x="251" y="196" style="fill:black;" font-family="Arial" font-size="16px">id</text>
   <rect width="74" height="20" x="246" y="202" style="fill:none;stroke:black;"/>
   <text width="74" height="20" x="251" y="216" style="fill:black;" font-family="Arial" font-size="16px">name</text>
   <rect width="74" height="20" x="246" y="222" style="fill:none;stroke:black;"/>
   <text width="74" height="20" x="251" y="236" style="fill:black;" font-family="Arial" font-size="16px">price</text>
   <rect width="74" height="20" x="246" y="242" style="fill:none;stroke:black;"/>
   <text width="74" height="20" x="251" y="256" style="fill:black;" font-family="Arial" font-size="16px">is_hidden</text>
   <rect width="123" height="20" x="339" y="344" style="fill:#007;stroke:black;"/>
   <text width="123" height="20" x="344" y="358" style="fill:#fff;" font-family="Arial" font-size="16px"> menus_products</text>
   <rect width="123" height="20" x="339" y="364" style="fill:#aea;stroke:black;"/>
   <text width="123" height="20" x="344" y="378" style="fill:black;" font-family="Arial" font-size="16px">id</text>
   <rect width="123" height="20" x="339" y="384" style="fill:none;stroke:black;"/>
   <text width="123" height="20" x="344" y="398" style="fill:black;" font-family="Arial" font-size="16px">menu_id</text>
   <rect width="123" height="20" x="339" y="404" style="fill:none;stroke:black;"/>
   <text width="123" height="20" x="344" y="418" style="fill:black;" font-family="Arial" font-size="16px">product_id</text>
   <rect width="81" height="20" x="862" y="335" style="fill:#007;stroke:black;"/>
   <text width="81" height="20" x="867" y="349" style="fill:#fff;" font-family="Arial" font-size="16px"> messages</text>
   <rect width="81" height="20" x="862" y="355" style="fill:#aea;stroke:black;"/>
   <text width="81" height="20" x="867" y="369" style="fill:black;" font-family="Arial" font-size="16px">id</text>
   <rect width="81" height="20" x="862" y="375" style="fill:none;stroke:black;"/>
   <text width="81" height="20" x="867" y="389" style="fill:black;" font-family="Arial" font-size="16px">title</text>
   <rect width="81" height="20" x="862" y="395" style="fill:none;stroke:black;"/>
   <text width="81" height="20" x="867" y="409" style="fill:black;" font-family="Arial" font-size="16px">content</text>
   <rect width="81" height="20" x="862" y="415" style="fill:none;stroke:black;"/>
   <text width="81" height="20" x="867" y="429" style="fill:black;" font-family="Arial" font-size="16px">user_id</text>
   <rect width="81" height="20" x="862" y="435" style="fill:none;stroke:black;"/>
   <text width="81" height="20" x="867" y="449" style="fill:black;" font-family="Arial" font-size="16px">ip</text>
   <rect width="81" height="20" x="862" y="455" style="fill:none;stroke:black;"/>
   <text width="81" height="20" x="867" y="469" style="fill:black;" font-family="Arial" font-size="16px">created_at</text>
   <rect width="99" height="20" x="884" y="81" style="fill:#007;stroke:black;"/>
   <text width="99" height="20" x="889" y="95" style="fill:#fff;" font-family="Arial" font-size="16px"> orders</text>
   <rect width="99" height="20" x="884" y="101" style="fill:#aea;stroke:black;"/>
   <text width="99" height="20" x="889" y="115" style="fill:black;" font-family="Arial" font-size="16px">id</text>
   <rect width="99" height="20" x="884" y="121" style="fill:none;stroke:black;"/>
   <text width="99" height="20" x="889" y="135" style="fill:black;" font-family="Arial" font-size="16px">user_id</text>
   <rect width="99" height="20" x="884" y="141" style="fill:none;stroke:black;"/>
   <text width="99" height="20" x="889" y="155" style="fill:black;" font-family="Arial" font-size="16px">price</text>
   <rect width="99" height="20" x="884" y="161" style="fill:none;stroke:black;"/>
   <text width="99" height="20" x="889" y="175" style="fill:black;" font-family="Arial" font-size="16px">coupon_id</text>
   <rect width="99" height="20" x="884" y="181" style="fill:none;stroke:black;"/>
   <text width="99" height="20" x="889" y="195" style="fill:black;" font-family="Arial" font-size="16px">address_id</text>
   <rect width="99" height="20" x="884" y="201" style="fill:none;stroke:black;"/>
   <text width="99" height="20" x="889" y="215" style="fill:black;" font-family="Arial" font-size="16px">is_in_delivery</text>
   <rect width="99" height="20" x="884" y="221" style="fill:none;stroke:black;"/>
   <text width="99" height="20" x="889" y="235" style="fill:black;" font-family="Arial" font-size="16px">validated_at</text>
   <rect width="99" height="20" x="884" y="241" style="fill:none;stroke:black;"/>
   <text width="99" height="20" x="889" y="255" style="fill:black;" font-family="Arial" font-size="16px">created_at</text>
   <rect width="123" height="20" x="87" y="483" style="fill:#007;stroke:black;"/>
   <text width="123" height="20" x="92" y="497" style="fill:#fff;" font-family="Arial" font-size="16px"> orders_products</text>
   <rect width="123" height="20" x="87" y="503" style="fill:#aea;stroke:black;"/>
   <text width="123" height="20" x="92" y="517" style="fill:black;" font-family="Arial" font-size="16px">id</text>
   <rect width="123" height="20" x="87" y="523" style="fill:none;stroke:black;"/>
   <text width="123" height="20" x="92" y="537" style="fill:black;" font-family="Arial" font-size="16px">order_id</text>
   <rect width="123" height="20" x="87" y="543" style="fill:none;stroke:black;"/>
   <text width="123" height="20" x="92" y="557" style="fill:black;" font-family="Arial" font-size="16px">product_id</text>
   <rect width="123" height="20" x="87" y="563" style="fill:none;stroke:black;"/>
   <text width="123" height="20" x="92" y="577" style="fill:black;" font-family="Arial" font-size="16px">price</text>
   <rect width="123" height="20" x="87" y="583" style="fill:none;stroke:black;"/>
   <text width="123" height="20" x="92" y="597" style="fill:black;" font-family="Arial" font-size="16px">quantity</text>
   <rect width="123" height="20" x="87" y="603" style="fill:none;stroke:black;"/>
   <text width="123" height="20" x="92" y="617" style="fill:black;" font-family="Arial" font-size="16px">type</text>
   <rect width="97" height="20" x="393" y="512" style="fill:#007;stroke:black;"/>
   <text width="97" height="20" x="398" y="526" style="fill:#fff;" font-family="Arial" font-size="16px"> products</text>
   <rect width="97" height="20" x="393" y="532" style="fill:#aea;stroke:black;"/>
   <text width="97" height="20" x="398" y="546" style="fill:black;" font-family="Arial" font-size="16px">id</text>
   <rect width="97" height="20" x="393" y="552" style="fill:none;stroke:black;"/>
   <text width="97" height="20" x="398" y="566" style="fill:black;" font-family="Arial" font-size="16px">name</text>
   <rect width="97" height="20" x="393" y="572" style="fill:none;stroke:black;"/>
   <text width="97" height="20" x="398" y="586" style="fill:black;" font-family="Arial" font-size="16px">description</text>
   <rect width="97" height="20" x="393" y="592" style="fill:none;stroke:black;"/>
   <text width="97" height="20" x="398" y="606" style="fill:black;" font-family="Arial" font-size="16px">price</text>
   <rect width="97" height="20" x="393" y="612" style="fill:none;stroke:black;"/>
   <text width="97" height="20" x="398" y="626" style="fill:black;" font-family="Arial" font-size="16px">buying_price</text>
   <rect width="97" height="20" x="393" y="632" style="fill:none;stroke:black;"/>
   <text width="97" height="20" x="398" y="646" style="fill:black;" font-family="Arial" font-size="16px">category_id</text>
   <rect width="97" height="20" x="393" y="652" style="fill:none;stroke:black;"/>
   <text width="97" height="20" x="398" y="666" style="fill:black;" font-family="Arial" font-size="16px">is_hidden</text>
   <rect width="116" height="20" x="636" y="506" style="fill:#007;stroke:black;"/>
   <text width="116" height="20" x="641" y="520" style="fill:#fff;" font-family="Arial" font-size="16px"> products_foods</text>
   <rect width="116" height="20" x="636" y="526" style="fill:#aea;stroke:black;"/>
   <text width="116" height="20" x="641" y="540" style="fill:black;" font-family="Arial" font-size="16px">id</text>
   <rect width="116" height="20" x="636" y="546" style="fill:none;stroke:black;"/>
   <text width="116" height="20" x="641" y="560" style="fill:black;" font-family="Arial" font-size="16px">product_id</text>
   <rect width="116" height="20" x="636" y="566" style="fill:none;stroke:black;"/>
   <text width="116" height="20" x="641" y="580" style="fill:black;" font-family="Arial" font-size="16px">food_id</text>
   <rect width="130" height="20" x="80" y="31" style="fill:#007;stroke:black;"/>
   <text width="130" height="20" x="85" y="45" style="fill:#fff;" font-family="Arial" font-size="16px"> products_images</text>
   <rect width="130" height="20" x="80" y="51" style="fill:#aea;stroke:black;"/>
   <text width="130" height="20" x="85" y="65" style="fill:black;" font-family="Arial" font-size="16px">id</text>
   <rect width="130" height="20" x="80" y="71" style="fill:none;stroke:black;"/>
   <text width="130" height="20" x="85" y="85" style="fill:black;" font-family="Arial" font-size="16px">product_id</text>
   <rect width="130" height="20" x="80" y="91" style="fill:none;stroke:black;"/>
   <text width="130" height="20" x="85" y="105" style="fill:black;" font-family="Arial" font-size="16px">image</text>
   <rect width="81" height="20" x="648" y="240" style="fill:#007;stroke:black;"/>
   <text width="81" height="20" x="653" y="254" style="fill:#fff;" font-family="Arial" font-size="16px"> users</text>
   <rect width="81" height="20" x="648" y="260" style="fill:#aea;stroke:black;"/>
   <text width="81" height="20" x="653" y="274" style="fill:black;" font-family="Arial" font-size="16px">id</text>
   <rect width="81" height="20" x="648" y="280" style="fill:none;stroke:black;"/>
   <text width="81" height="20" x="653" y="294" style="fill:black;" font-family="Arial" font-size="16px">firstname</text>
   <rect width="81" height="20" x="648" y="300" style="fill:none;stroke:black;"/>
   <text width="81" height="20" x="653" y="314" style="fill:black;" font-family="Arial" font-size="16px">lastname</text>
   <rect width="81" height="20" x="648" y="320" style="fill:none;stroke:black;"/>
   <text width="81" height="20" x="653" y="334" style="fill:black;" font-family="Arial" font-size="16px">email</text>
   <rect width="81" height="20" x="648" y="340" style="fill:none;stroke:black;"/>
   <text width="81" height="20" x="653" y="354" style="fill:black;" font-family="Arial" font-size="16px">password</text>
   <rect width="81" height="20" x="648" y="360" style="fill:none;stroke:black;"/>
   <text width="81" height="20" x="653" y="374" style="fill:black;" font-family="Arial" font-size="16px">is_admin</text>
   <rect width="81" height="20" x="648" y="380" style="fill:none;stroke:black;"/>
   <text width="81" height="20" x="653" y="394" style="fill:black;" font-family="Arial" font-size="16px">created_at</text>
</svg>
